<svg id="visual" viewBox="0 0 1920 1080" width="1920" height="1080" xmlns="http://www.w3.org/2000/svg" xmlns:xlink="http://www.w3.org/1999/xlink" version="1.1"><rect x="0" y="0" width="1920" height="1080" fill="#94B49F"></rect><path d="M0 914L35.5 915.8C71 917.7 142 921.3 213.2 924.5C284.3 927.7 355.7 930.3 426.8 926.2C498 922 569 911 640 901C711 891 782 882 853.2 881.5C924.3 881 995.7 889 1066.8 895.8C1138 902.7 1209 908.3 1280 899.3C1351 890.3 1422 866.7 1493.2 853.8C1564.3 841 1635.7 839 1706.8 855C1778 871 1849 905 1884.5 922L1920 939L1920 1081L1884.5 1081C1849 1081 1778 1081 1706.8 1081C1635.7 1081 1564.3 1081 1493.2 1081C1422 1081 1351 1081 1280 1081C1209 1081 1138 1081 1066.8 1081C995.7 1081 924.3 1081 853.2 1081C782 1081 711 1081 640 1081C569 1081 498 1081 426.8 1081C355.7 1081 284.3 1081 213.2 1081C142 1081 71 1081 35.5 1081L0 1081Z" fill="#fcf8e8"></path><path d="M0 945L35.5 938.2C71 931.3 142 917.7 213.2 912.7C284.3 907.7 355.7 911.3 426.8 921.8C498 932.3 569 949.7 640 955.5C711 961.3 782 955.7 853.2 947.3C924.3 939 995.7 928 1066.8 918.8C1138 909.7 1209 902.3 1280 911.3C1351 920.3 1422 945.7 1493.2 950.7C1564.3 955.7 1635.7 940.3 1706.8 935.2C1778 930 1849 935 1884.5 937.5L1920 940L1920 1081L1884.5 1081C1849 1081 1778 1081 1706.8 1081C1635.7 1081 1564.3 1081 1493.2 1081C1422 1081 1351 1081 1280 1081C1209 1081 1138 1081 1066.8 1081C995.7 1081 924.3 1081 853.2 1081C782 1081 711 1081 640 1081C569 1081 498 1081 426.8 1081C355.7 1081 284.3 1081 213.2 1081C142 1081 71 1081 35.5 1081L0 1081Z" fill="#f3e2c7"></path><path d="M0 997L35.5 994.8C71 992.7 142 988.3 213.2 986.5C284.3 984.7 355.7 985.3 426.8 978.2C498 971 569 956 640 953.3C711 950.7 782 960.3 853.2 966.8C924.3 973.3 995.7 976.7 1066.8 982.3C1138 988 1209 996 1280 998.8C1351 1001.7 1422 999.3 1493.2 999C1564.3 998.7 1635.7 1000.3 1706.8 998.8C1778 997.3 1849 992.7 1884.5 990.3L1920 988L1920 1081L1884.5 1081C1849 1081 1778 1081 1706.8 1081C1635.7 1081 1564.3 1081 1493.2 1081C1422 1081 1351 1081 1280 1081C1209 1081 1138 1081 1066.8 1081C995.7 1081 924.3 1081 853.2 1081C782 1081 711 1081 640 1081C569 1081 498 1081 426.8 1081C355.7 1081 284.3 1081 213.2 1081C142 1081 71 1081 35.5 1081L0 1081Z" fill="#eecba9"></path><path d="M0 1009L35.5 1008C71 1007 142 1005 213.2 1009.7C284.3 1014.3 355.7 1025.7 426.8 1028.5C498 1031.3 569 1025.7 640 1021.5C711 1017.3 782 1014.7 853.2 1017.3C924.3 1020 995.7 1028 1066.8 1024.8C1138 1021.7 1209 1007.3 1280 1005.3C1351 1003.3 1422 1013.7 1493.2 1017.3C1564.3 1021 1635.7 1018 1706.8 1019.3C1778 1020.7 1849 1026.3 1884.5 1029.2L1920 1032L1920 1081L1884.5 1081C1849 1081 1778 1081 1706.8 1081C1635.7 1081 1564.3 1081 1493.2 1081C1422 1081 1351 1081 1280 1081C1209 1081 1138 1081 1066.8 1081C995.7 1081 924.3 1081 853.2 1081C782 1081 711 1081 640 1081C569 1081 498 1081 426.8 1081C355.7 1081 284.3 1081 213.2 1081C142 1081 71 1081 35.5 1081L0 1081Z" fill="#ecb390"></path></svg>